 <svg xmlns="http://www.w3.org/2000/svg" version="1.0" width="512.000000pt" height="512.000000pt" viewBox="0 0 512.000000 512.000000" preserveAspectRatio="xMidYMid meet"><g transform="translate(0.000000,512.000000) scale(0.100000,-0.100000)" fill="#000000" stroke="none"><path d="M2425 5104 c-114 -24 -225 -84 -314 -169 -43 -42 -92 -100 -111 -134 -32 -56 -42 -64 -108 -97 -190 -92 -317 -288 -329 -504 -16 -292 170 -542 457 -616 48 -12 92 -15 170 -12 99 5 143 16 253 63 16 7 17 -3 17 -128 l0 -135 -62 -7 c-292 -30 -511 -91 -753 -210 -71 -35 -168 -89 -214 -120 -46 -31 -85 -55 -86 -53 -32 38 -165 210 -165 214 0 3 22 39 48 78 70 105 97 195 97 326 0 131 -27 221 -97 326 -81 121 -194 204 -328 241 -46 12 -82 31 -124 65 -256 205 -631 101 -745 -206 -59 -159 -28 -331 83 -468 26 -32 47 -72 54 -101 87 -345 476 -539 802 -399 l45 19 88 -111 87 -111 -89 -90 c-162 -165 -282 -328 -373 -505 l-43 -85 -5 145 c-4 124 -8 152 -28 191 -36 74 -87 125 -160 161 -60 30 -76 33 -152 33 -66 0 -96 -5 -132 -22 -66 -30 -143 -105 -175 -172 l-28 -56 -3 -355 c-5 -542 22 -721 153 -998 111 -235 170 -308 589 -729 387 -390 390 -392 454 -359 39 20 52 44 52 92 0 37 -14 52 -343 384 -189 190 -361 368 -384 395 -141 176 -243 391 -294 623 -20 88 -22 133 -26 497 -4 389 -3 401 16 433 43 68 118 89 189 53 72 -37 72 -37 72 -423 0 -189 5 -381 10 -426 12 -97 53 -217 101 -299 47 -80 710 -749 751 -759 81 -17 143 69 104 144 -8 15 -146 158 -306 317 -160 160 -298 303 -307 319 -20 38 -20 114 1 154 34 67 113 102 193 87 33 -6 73 -42 295 -263 l257 -255 110 -14 c199 -24 342 -94 472 -230 154 -162 244 -343 284 -570 8 -47 15 -112 15 -145 0 -55 3 -63 34 -94 46 -46 86 -46 132 0 31 31 34 39 34 94 0 195 85 444 210 612 149 201 323 305 561 333 l110 14 257 255 c222 221 262 257 295 263 80 15 159 -20 193 -87 21 -40 21 -116 1 -154 -9 -16 -151 -164 -316 -329 -321 -320 -328 -329 -301 -396 7 -16 26 -37 43 -45 63 -33 68 -29 437 344 368 370 390 397 441 543 41 116 49 207 49 588 0 327 1 345 20 376 39 64 129 83 191 42 68 -45 69 -53 69 -427 0 -320 -7 -443 -31 -555 -23 -106 -63 -224 -111 -328 -56 -121 -57 -149 -6 -192 34 -29 66 -32 110 -9 53 28 161 285 202 484 31 154 37 263 34 630 l-3 365 -28 56 c-32 67 -109 142 -175 172 -36 17 -66 22 -132 22 -76 0 -92 -3 -152 -33 -73 -36 -124 -87 -160 -161 -20 -39 -24 -67 -28 -191 l-5 -145 -43 83 c-92 178 -205 333 -359 492 l-102 107 87 110 87 110 45 -19 c326 -140 715 54 802 399 7 29 28 69 54 101 111 137 142 309 83 468 -115 310 -491 412 -749 203 -38 -31 -75 -50 -120 -62 -134 -37 -247 -120 -328 -241 -70 -105 -97 -195 -97 -326 0 -131 27 -221 97 -326 26 -39 48 -75 48 -78 0 -4 -121 -162 -165 -214 -1 -1 -40 23 -86 53 -46 31 -142 85 -214 120 -240 119 -460 180 -752 210 l-63 7 0 135 c0 125 1 135 18 128 109 -47 153 -58 252 -63 184 -8 328 48 456 176 195 196 228 496 83 738 -48 79 -152 174 -239 218 -65 32 -77 43 -109 97 -55 93 -172 199 -273 248 -140 67 -279 85 -423 55z m240 -199 c137 -36 244 -123 309 -254 30 -59 43 -74 74 -87 163 -69 221 -118 275 -232 29 -61 32 -76 32 -162 -1 -75 -6 -107 -24 -153 -32 -81 -115 -168 -199 -209 -62 -31 -73 -33 -172 -33 -92 0 -112 3 -160 26 -30 14 -70 38 -88 54 l-34 28 101 101 c110 111 125 140 97 194 -20 38 -44 52 -91 52 -28 0 -45 -9 -80 -41 l-45 -42 0 176 c0 191 -6 219 -51 243 -55 28 -110 11 -138 -43 -7 -14 -11 -101 -11 -249 l0 -228 -94 92 c-87 86 -96 92 -134 92 -56 0 -91 -31 -99 -88 l-6 -43 127 -127 c69 -70 126 -131 126 -136 0 -4 -26 -19 -57 -34 -52 -24 -70 -27 -163 -27 -99 0 -110 2 -172 33 -84 41 -167 128 -199 209 -18 46 -23 78 -24 153 0 86 3 101 32 162 54 114 112 163 275 232 31 13 44 28 74 87 101 202 315 307 519 254z m-2068 -794 c23 -11 62 -41 85 -66 38 -39 52 -46 114 -59 39 -8 94 -26 122 -40 113 -57 198 -184 209 -312 28 -351 -388 -557 -645 -319 -71 66 -109 133 -126 225 -13 65 -19 76 -69 129 -111 116 -115 264 -11 379 59 67 124 94 214 89 41 -3 81 -12 107 -26z m4139 12 c70 -24 147 -103 168 -173 33 -110 11 -195 -71 -281 -50 -53 -56 -64 -69 -129 -17 -92 -55 -159 -126 -225 -192 -178 -492 -117 -611 125 -29 59 -32 73 -32 160 0 85 3 102 31 160 56 119 160 198 296 226 65 13 78 20 113 58 82 88 190 117 301 79z m-1816 -988 c69 -14 172 -42 230 -61 103 -34 305 -126 345 -157 l20 -16 -20 -6 c-313 -108 -513 -433 -465 -757 22 -156 104 -315 212 -414 25 -23 117 -89 205 -147 88 -58 163 -112 166 -120 4 -10 -26 -46 -82 -101 -84 -81 -91 -86 -132 -86 -112 0 -309 -72 -437 -159 -128 -86 -272 -256 -353 -415 -24 -47 -46 -86 -49 -86 -3 0 -25 39 -49 86 -80 158 -212 314 -343 407 -128 91 -330 167 -447 167 -42 0 -48 4 -143 98 -55 53 -104 104 -108 113 -14 25 5 130 34 192 16 33 49 77 83 109 102 95 129 127 158 179 107 197 56 435 -123 571 -82 62 -165 88 -284 88 -49 0 -88 4 -86 9 5 15 126 119 202 175 259 190 542 306 857 351 162 23 449 13 609 -20z m952 -507 c218 -217 377 -476 466 -758 16 -52 32 -107 36 -122 l6 -27 -55 34 c-71 42 -140 59 -220 53 -96 -8 -166 -45 -261 -139 l-80 -80 -20 22 c-10 12 -91 70 -179 127 -88 58 -181 127 -207 154 -92 95 -148 258 -134 389 29 251 238 447 478 448 l67 1 103 -102z m-2417 -227 c85 -38 144 -126 145 -215 0 -93 -16 -123 -125 -231 -82 -82 -109 -116 -142 -181 -22 -45 -43 -87 -45 -95 -4 -10 -18 -2 -49 28 -24 23 -71 55 -104 70 -52 24 -72 28 -150 28 -78 0 -98 -4 -150 -28 -33 -15 -68 -35 -78 -45 -18 -16 -18 -15 -12 13 40 173 152 428 259 588 l58 87 177 0 c149 0 182 -3 216 -19z"></path><path d="M2329 2206 c-179 -52 -311 -205 -340 -396 -16 -107 -6 -280 20 -352 30 -78 83 -143 153 -188 72 -47 140 -64 239 -59 92 5 182 46 246 111 42 43 162 246 190 323 76 206 -15 434 -212 531 -65 32 -85 37 -162 40 -54 2 -106 -2 -134 -10z m212 -213 c64 -33 105 -87 118 -156 13 -70 -1 -116 -75 -250 -82 -146 -109 -170 -203 -175 -58 -3 -71 0 -108 24 -22 15 -52 46 -65 68 -21 38 -23 52 -23 176 0 118 3 141 22 180 67 140 208 196 334 133z"></path><path d="M4523 790 c-32 -13 -57 -57 -56 -98 1 -49 48 -92 99 -92 50 0 94 45 94 95 0 47 -13 71 -50 90 -32 17 -54 18 -87 5z"></path><path d="M4038 312 c-158 -158 -168 -170 -168 -205 0 -49 13 -73 52 -93 59 -30 80 -17 250 154 86 86 161 168 167 183 22 61 -28 129 -97 129 -34 0 -49 -12 -204 -168z"></path></g></svg>