 <svg xmlns="http://www.w3.org/2000/svg" version="1.0" width="512.000000pt" height="512.000000pt" viewBox="0 0 512.000000 512.000000" preserveAspectRatio="xMidYMid meet"><g transform="translate(0.000000,512.000000) scale(0.100000,-0.100000)" fill="#000000" stroke="none"><path d="M2180 5010 c-120 -15 -287 -49 -400 -81 -154 -44 -319 -109 -336 -133 -21 -31 -21 -768 1 -810 8 -15 15 -48 15 -72 0 -53 26 -84 69 -84 50 0 68 29 73 119 l3 44 85 29 c241 82 474 122 705 122 245 0 430 -32 698 -120 l107 -36 0 -62 c0 -72 17 -96 67 -96 43 0 63 27 63 87 0 33 5 55 15 63 13 11 15 69 15 410 l0 399 -25 19 c-62 49 -371 144 -590 182 -137 24 -442 35 -565 20z m482 -146 c129 -18 377 -80 488 -121 l75 -29 3 -292 c2 -234 0 -292 -11 -292 -7 0 -58 15 -113 34 -121 41 -302 83 -444 102 -139 18 -387 18 -532 -1 -126 -17 -349 -69 -467 -109 -41 -15 -78 -26 -83 -26 -4 0 -8 132 -8 293 l0 294 123 41 c156 52 309 90 434 107 138 18 399 18 535 -1z"></path><path d="M1434 3731 c-84 -51 -96 -250 -24 -397 27 -55 98 -135 142 -160 12 -6 23 -36 33 -90 40 -213 129 -380 276 -518 131 -123 285 -201 452 -226 288 -43 625 145 791 442 41 75 90 217 106 310 11 64 14 69 64 107 97 73 156 198 156 330 0 139 -49 221 -131 221 -52 0 -96 -19 -142 -62 -42 -40 -48 -77 -17 -108 27 -27 66 -25 107 6 19 14 37 24 40 20 3 -3 5 -37 5 -75 -1 -84 -26 -149 -79 -203 -42 -43 -54 -47 -218 -84 -116 -26 -124 -26 -261 -15 -182 14 -500 14 -673 0 -132 -11 -140 -11 -266 16 -71 15 -146 36 -167 46 -49 25 -95 84 -113 143 -15 50 -20 157 -9 169 4 3 23 -5 43 -18 19 -14 47 -25 62 -25 60 0 80 77 32 122 -73 68 -149 86 -209 49z m387 -632 l35 -9 18 -170 c10 -94 16 -173 14 -176 -8 -7 -52 55 -86 121 -33 65 -66 158 -77 219 l-8 38 34 -7 c19 -4 50 -11 70 -16z m1242 -41 c-20 -87 -68 -198 -115 -269 -22 -33 -42 -58 -44 -56 -6 6 34 348 41 356 7 6 89 28 116 30 15 1 15 -5 2 -61z m-464 42 c107 -6 196 -12 198 -14 4 -4 -46 -474 -52 -493 -6 -18 -160 -89 -231 -107 -78 -20 -151 -20 -234 0 -56 13 -175 63 -219 93 -9 6 -22 84 -41 257 -16 137 -27 250 -26 252 2 2 272 17 371 20 22 1 128 -3 234 -8z"></path><path d="M3312 3030 c-28 -26 -28 -71 -1 -96 20 -18 51 -19 858 -22 584 -2 844 1 862 9 52 21 58 93 10 118 -13 8 -288 11 -863 11 -836 0 -844 0 -866 -20z"></path><path d="M3272 2834 c-21 -14 -22 -21 -22 -168 0 -115 3 -157 14 -171 12 -17 31 -20 118 -25 l103 -5 328 -233 327 -234 0 -329 0 -329 -34 0 c-58 0 -159 -37 -202 -74 -23 -20 -52 -58 -65 -88 -24 -53 -24 -54 -24 -423 l0 -370 31 -65 c160 -335 644 -261 704 107 13 76 12 569 0 657 -19 132 -86 208 -212 243 l-58 16 0 327 0 326 305 237 304 237 91 0 c83 0 93 2 115 25 24 23 25 29 25 163 0 126 -2 142 -21 166 l-20 26 -893 0 c-791 0 -894 -2 -914 -16z m1708 -174 l0 -50 -64 0 c-75 0 -46 19 -435 -284 -139 -109 -258 -199 -265 -202 -6 -2 -166 106 -356 241 l-345 245 -67 0 -68 0 0 50 0 50 800 0 800 0 0 -50z m-649 -1472 c20 -9 47 -31 60 -49 l24 -34 0 -350 c0 -387 2 -377 -67 -445 -71 -72 -172 -89 -264 -46 -44 21 -114 87 -114 108 0 5 36 8 80 8 90 0 120 17 120 68 0 56 -32 72 -144 72 l-86 0 0 54 0 54 94 4 c109 4 136 18 136 74 0 51 -27 64 -138 64 l-93 0 3 63 3 62 95 3 c106 3 130 15 130 65 0 56 -22 67 -127 67 l-93 0 0 31 c0 69 44 119 125 140 47 13 216 4 256 -13z"></path><path d="M20 2790 c-18 -18 -20 -33 -20 -144 0 -110 2 -126 21 -150 20 -25 23 -26 140 -26 115 0 119 -1 123 -22 30 -166 62 -255 115 -325 l39 -51 -30 -29 c-78 -74 -91 -155 -86 -559 4 -350 9 -371 103 -472 l54 -58 -63 -85 c-82 -110 -110 -160 -136 -239 -37 -115 -52 -202 -57 -346 -5 -135 -5 -142 16 -163 21 -21 24 -21 500 -21 l480 0 21 27 c21 26 22 35 17 148 -7 138 -26 251 -62 355 -31 90 -53 128 -153 260 l-79 104 37 56 c63 91 70 133 70 389 l0 226 28 41 c86 130 219 264 352 354 65 44 210 120 229 120 7 0 11 -28 11 -82 1 -134 21 -188 71 -188 22 0 318 137 341 157 24 21 23 75 0 96 -29 26 -62 21 -166 -29 -54 -25 -100 -43 -104 -40 -6 6 -20 189 -21 284 -1 32 -7 49 -26 67 -29 30 -55 32 -86 6 -20 -16 -24 -29 -24 -70 l0 -52 -78 -33 c-164 -72 -325 -185 -451 -316 -43 -45 -79 -80 -80 -78 -1 2 -10 24 -20 51 -17 46 -63 104 -99 123 -16 9 -17 30 -15 273 l3 262 35 -23 c20 -13 46 -44 60 -73 23 -46 25 -64 30 -228 5 -162 7 -180 24 -193 29 -20 70 -17 92 7 17 19 19 37 18 183 -1 171 -9 225 -50 307 -30 60 -105 126 -163 143 -29 8 -50 21 -58 36 -6 12 -17 27 -25 31 -7 5 -203 9 -435 9 -410 0 -424 -1 -443 -20z m200 -145 c0 -34 -1 -35 -40 -35 -39 0 -40 1 -40 35 0 34 1 35 40 35 39 0 40 -1 40 -35z m570 -241 l0 -277 -93 5 c-99 5 -135 18 -178 65 -52 55 -85 152 -99 285 -7 75 -11 85 -39 109 -23 19 -31 34 -31 57 l0 32 220 0 220 0 0 -276z m65 -434 c47 -23 75 -67 75 -119 l0 -31 -88 0 c-105 0 -132 -13 -132 -64 0 -53 22 -65 130 -68 l95 -3 3 -62 3 -63 -85 0 c-47 0 -96 -4 -110 -10 -47 -17 -47 -97 -1 -118 14 -7 64 -12 111 -12 l85 0 -3 -57 -3 -58 -95 -3 c-108 -3 -130 -15 -130 -68 0 -49 28 -64 122 -64 43 0 78 -4 78 -9 0 -4 -18 -29 -40 -54 -53 -60 -109 -81 -194 -75 -80 7 -137 42 -181 112 l-30 49 0 346 c0 312 2 349 18 378 32 59 109 84 240 78 63 -3 101 -10 132 -25z m47 -1121 c137 -182 168 -241 184 -339 l7 -40 -357 0 c-218 0 -356 4 -356 9 0 34 57 179 88 224 20 30 59 86 87 125 l49 70 66 -4 c40 -3 84 0 115 9 28 8 53 15 57 16 3 0 30 -31 60 -70z m216 -566 l3 -53 -380 0 c-213 0 -382 4 -385 9 -3 5 -3 30 0 55 l7 46 376 -2 376 -3 3 -52z"></path><path d="M3001 2451 c-24 -24 -29 -50 -37 -223 -3 -76 -10 -138 -14 -138 -4 0 -51 20 -104 45 -54 25 -108 45 -122 45 -50 0 -81 -63 -51 -103 14 -20 323 -167 350 -167 10 0 29 11 42 25 20 19 25 35 25 72 0 82 12 183 22 183 23 0 195 -94 271 -147 97 -68 236 -205 298 -294 55 -78 118 -194 148 -271 13 -31 31 -64 41 -73 26 -23 69 -15 93 17 19 25 19 31 7 70 -25 77 -124 261 -184 343 -75 102 -209 235 -310 310 -77 56 -238 145 -323 177 -42 16 -43 18 -43 61 0 37 -5 49 -26 66 -33 26 -58 27 -83 2z"></path><path d="M2346 1908 c-14 -20 -16 -120 -16 -883 0 -763 2 -863 16 -883 20 -29 74 -30 100 -1 18 20 19 49 19 884 0 835 -1 864 -19 884 -26 29 -80 28 -100 -1z"></path><path d="M1376 1429 l-26 -20 0 -304 c0 -274 2 -305 18 -323 26 -32 333 -222 357 -222 25 0 331 190 358 221 15 19 17 50 17 324 l0 304 -26 20 c-26 20 -38 21 -349 21 -311 0 -323 -1 -349 -21z m584 -346 l0 -228 -112 -70 c-62 -38 -117 -70 -123 -70 -6 0 -61 32 -123 70 l-112 70 0 228 0 227 235 0 235 0 0 -227z"></path></g></svg>