<svg xmlns="http://www.w3.org/2000/svg" version="1.0" width="512.000000pt" height="512.000000pt" viewBox="0 0 512.000000 512.000000" preserveAspectRatio="xMidYMid meet"><g transform="translate(0.000000,512.000000) scale(0.100000,-0.100000)" fill="#000000" stroke="none"><path d="M2397 5095 c-22 -7 -50 -24 -64 -37 -47 -44 -53 -68 -53 -212 l0 -134 -67 -21 c-38 -11 -106 -39 -152 -61 l-84 -41 -86 84 c-100 98 -132 117 -199 117 -63 0 -113 -32 -213 -136 -89 -92 -109 -127 -109 -188 0 -69 14 -92 111 -192 l90 -92 -39 -78 c-22 -44 -50 -112 -63 -151 l-23 -73 -133 0 c-147 0 -172 -7 -217 -60 -40 -49 -48 -92 -45 -246 4 -130 6 -143 29 -177 46 -67 87 -81 237 -85 l132 -4 26 -76 c14 -43 41 -108 60 -146 l35 -70 -84 -85 c-46 -47 -91 -100 -100 -118 -18 -36 -21 -108 -6 -149 13 -33 181 -207 228 -236 39 -24 124 -28 162 -8 14 7 66 53 116 101 l90 89 70 -35 c38 -20 105 -48 149 -63 l80 -27 5 -140 c6 -157 14 -182 78 -225 34 -24 42 -25 202 -25 160 0 168 1 202 25 64 43 72 68 78 224 l5 140 78 27 c43 15 110 43 149 63 l72 36 97 -95 c59 -57 108 -97 126 -100 15 -4 34 -9 41 -11 7 -2 34 1 60 8 39 10 64 28 149 111 112 109 133 142 133 212 0 63 -20 96 -117 196 l-83 86 39 79 c21 43 48 109 60 146 l22 66 132 4 c150 4 191 18 237 85 23 34 25 47 29 177 3 154 -5 197 -45 246 -45 53 -70 60 -217 60 l-133 0 -23 73 c-13 39 -41 107 -63 151 l-39 78 90 92 c97 100 111 123 111 192 0 61 -20 96 -109 188 -100 104 -150 136 -213 136 -67 0 -99 -19 -199 -117 l-86 -84 -84 41 c-46 22 -114 50 -151 61 l-68 21 0 134 c0 148 -7 173 -60 217 -17 15 -47 31 -68 37 -54 15 -269 12 -315 -5z m293 -306 c6 -197 6 -198 111 -224 88 -21 194 -64 269 -110 94 -57 104 -54 235 75 61 61 115 110 120 110 16 0 175 -164 175 -180 0 -8 -49 -65 -110 -125 -88 -87 -110 -115 -110 -138 0 -15 20 -62 45 -105 49 -86 86 -178 105 -264 20 -90 25 -92 219 -98 l166 -5 3 -119 c2 -78 -1 -123 -9 -132 -9 -11 -46 -14 -166 -14 -86 0 -163 -5 -173 -10 -12 -6 -26 -33 -35 -68 -30 -109 -66 -200 -111 -277 -65 -115 -64 -118 66 -250 61 -61 110 -118 110 -126 0 -9 -38 -53 -84 -98 -71 -69 -88 -81 -103 -72 -10 5 -65 57 -123 115 -114 115 -135 125 -188 87 -70 -49 -196 -101 -338 -140 -66 -18 -68 -24 -74 -210 l-5 -166 -125 0 -125 0 -5 160 c-3 102 -10 168 -18 182 -7 13 -30 27 -55 34 -144 39 -269 91 -339 140 -53 38 -74 28 -188 -87 -58 -58 -113 -110 -123 -115 -15 -9 -32 3 -103 72 -46 45 -84 89 -84 98 0 8 50 65 110 126 130 132 131 135 66 250 -45 77 -81 168 -111 277 -9 35 -23 62 -35 68 -10 5 -87 10 -173 10 -120 0 -157 3 -166 14 -8 9 -11 54 -9 132 l3 119 166 5 c194 6 199 8 219 98 18 83 64 199 110 275 60 99 59 104 -70 232 -60 60 -110 116 -110 125 0 16 158 180 174 180 6 0 60 -49 121 -110 131 -129 141 -132 235 -75 75 46 181 89 269 110 104 26 105 28 109 214 2 86 5 162 7 169 4 9 34 12 127 10 l123 -3 5 -166z"></path><path d="M2397 4245 c-116 -29 -205 -82 -302 -180 -99 -99 -149 -182 -181 -305 -22 -84 -22 -235 0 -320 75 -298 340 -504 646 -503 265 0 496 148 606 386 37 82 40 116 14 150 -16 19 -30 27 -54 27 -41 0 -51 -12 -103 -120 -128 -262 -422 -368 -681 -245 -86 41 -186 131 -226 205 -96 176 -91 378 13 536 100 154 248 234 430 234 211 0 382 -110 471 -305 44 -94 68 -114 117 -98 15 5 34 22 42 38 12 26 12 35 -3 80 -63 180 -228 342 -416 406 -84 29 -284 36 -373 14z"></path><path d="M2603 3688 l-113 -112 -45 44 c-32 32 -52 43 -74 43 -43 0 -71 -28 -71 -71 0 -31 10 -46 78 -114 115 -114 110 -115 295 70 129 129 147 151 147 180 0 41 -30 72 -72 72 -26 0 -48 -17 -145 -112z"></path><path d="M675 4495 c-18 -18 -25 -35 -25 -65 0 -40 0 -40 -39 -40 -52 0 -84 -27 -84 -70 0 -43 40 -80 89 -80 32 0 34 -2 34 -34 0 -75 81 -115 130 -66 13 13 20 33 20 59 l0 38 47 6 c77 8 106 65 62 121 -17 21 -29 26 -65 26 l-44 0 0 43 c0 78 -73 115 -125 62z"></path><path d="M193 2501 c-47 -12 -119 -57 -143 -90 -29 -42 -50 -106 -50 -155 0 -30 39 -138 144 -397 79 -196 156 -380 172 -410 16 -29 57 -82 90 -116 53 -54 67 -63 97 -63 44 0 77 31 77 73 0 21 -12 40 -44 71 -24 22 -55 57 -70 77 -31 43 -316 739 -316 774 0 30 43 81 75 89 14 4 41 0 60 -8 29 -12 41 -27 64 -78 164 -365 190 -410 275 -471 16 -12 172 -85 346 -162 l315 -142 35 -101 c20 -56 43 -111 53 -122 25 -30 80 -27 106 6 12 15 21 32 21 39 0 7 -61 195 -135 417 -87 258 -134 411 -130 426 14 55 76 79 123 46 12 -8 56 -72 97 -142 69 -118 92 -146 322 -392 221 -236 267 -291 420 -505 94 -132 188 -274 208 -317 65 -136 67 -153 74 -485 6 -294 7 -303 28 -324 26 -27 75 -29 102 -5 17 15 19 39 23 294 8 423 21 459 291 836 153 215 199 270 420 506 229 245 253 275 322 392 41 70 85 134 97 142 47 33 109 9 123 -46 4 -15 -43 -168 -130 -426 -74 -222 -135 -410 -135 -417 0 -7 9 -24 21 -39 26 -33 81 -36 106 -6 10 11 33 66 53 122 l35 101 305 137 c168 74 322 146 342 158 91 56 124 111 289 480 23 51 35 66 64 78 19 8 46 12 60 8 32 -8 75 -59 75 -89 0 -40 -286 -732 -325 -785 -25 -34 -173 -153 -534 -429 -274 -209 -511 -395 -527 -413 -64 -77 -69 -101 -69 -350 0 -221 1 -228 22 -249 27 -27 75 -29 102 -5 18 16 20 35 23 234 3 183 6 222 20 249 12 20 143 127 375 304 598 456 653 500 694 552 57 71 65 90 226 487 152 376 157 397 128 479 -29 84 -107 149 -196 165 -83 15 -196 -36 -239 -107 -11 -18 -57 -115 -103 -217 -112 -252 -104 -245 -416 -383 -134 -59 -245 -106 -247 -105 -1 2 29 95 67 208 61 177 70 212 66 256 -18 192 -234 280 -384 157 -12 -10 -60 -80 -106 -156 -77 -127 -102 -158 -326 -398 -217 -233 -262 -286 -423 -512 -99 -138 -192 -275 -206 -304 -15 -29 -29 -53 -32 -53 -3 0 -17 24 -32 52 -14 29 -106 166 -204 303 -161 225 -203 276 -422 510 -221 236 -250 272 -322 391 -43 71 -92 143 -107 159 -106 106 -296 77 -364 -57 -42 -82 -38 -122 40 -348 38 -113 68 -206 67 -208 -2 -1 -113 46 -247 106 -304 135 -308 139 -393 332 -122 277 -151 322 -231 356 -42 17 -114 24 -152 15z"></path><path d="M731 1174 c-26 -33 -27 -65 -3 -92 9 -11 169 -135 354 -276 221 -168 344 -268 355 -289 15 -27 18 -65 21 -249 3 -199 5 -218 23 -234 27 -24 75 -22 102 5 21 21 22 28 22 249 0 227 0 227 -27 282 -15 30 -42 70 -60 87 -18 17 -184 147 -368 287 -365 279 -376 285 -419 230z"></path></g>
                    </svg>