 <svg xmlns="http://www.w3.org/2000/svg" version="1.0" width="512.000000pt" height="512.000000pt" viewBox="0 0 512.000000 512.000000" preserveAspectRatio="xMidYMid meet"><g transform="translate(0.000000,512.000000) scale(0.100000,-0.100000)" fill="#000000" stroke="none"><path d="M1273 5025 c-198 -36 -364 -123 -509 -269 -127 -127 -206 -263 -257 -445 -21 -74 -22 -95 -25 -766 l-3 -691 -47 -24 c-26 -14 -88 -65 -137 -115 -100 -99 -146 -175 -187 -305 -23 -75 -23 -77 -23 -605 l0 -530 27 -51 c40 -76 70 -107 140 -144 60 -32 69 -34 186 -38 l122 -4 0 -239 0 -239 800 0 800 0 0 -240 0 -240 1440 0 1440 0 0 1280 0 1280 -160 0 -160 0 0 458 0 457 -360 360 -360 360 -360 -360 -360 -360 -2 -344 -3 -343 -154 136 c-85 75 -157 136 -161 136 -4 0 -101 -83 -216 -185 -114 -102 -211 -184 -214 -183 -3 2 -33 21 -67 43 l-61 40 -4 690 c-3 670 -4 692 -25 766 -30 107 -74 207 -129 292 -63 98 -200 231 -303 295 -196 120 -445 168 -668 127z m357 -168 c209 -57 367 -171 481 -345 47 -72 75 -134 107 -242 14 -48 17 -137 20 -706 l3 -652 -98 23 c-54 13 -152 35 -217 50 -145 34 -166 49 -166 123 0 41 5 53 31 78 55 51 144 178 188 268 69 141 92 250 98 454 l6 172 -72 0 c-183 0 -355 69 -490 196 l-81 76 -81 -76 c-135 -127 -307 -196 -490 -196 l-72 0 6 -172 c5 -202 29 -310 96 -450 41 -88 134 -220 190 -272 26 -25 31 -37 31 -78 0 -74 -21 -89 -166 -123 -65 -15 -163 -37 -217 -50 l-98 -23 3 652 c3 569 6 658 20 706 32 108 60 170 108 244 118 180 303 306 520 352 80 17 262 12 340 -9z m-138 -767 c104 -78 250 -140 375 -158 l48 -8 -1 -85 c-4 -197 -96 -402 -250 -551 -73 -71 -94 -87 -166 -128 l-58 -32 -66 37 c-79 44 -199 156 -260 241 -89 125 -145 289 -148 433 l-1 85 51 8 c125 18 301 95 384 167 19 17 36 30 37 31 2 0 26 -18 55 -40z m2733 -270 l220 -220 -445 0 -445 0 220 220 c121 121 222 220 225 220 3 0 104 -99 225 -220z m-305 -1100 l0 -720 -80 0 -80 0 0 218 0 218 -160 143 -160 143 0 359 0 359 240 0 240 0 0 -720z m640 320 l0 -400 -240 0 -240 0 0 400 0 400 240 0 240 0 0 -400z m-3210 -45 c38 -19 79 -35 90 -35 11 0 52 16 90 35 38 19 72 35 74 35 2 0 10 -16 16 -35 6 -19 32 -55 57 -80 l45 -46 -22 -62 c-12 -34 -31 -86 -42 -114 l-19 -53 -199 0 -199 0 -19 53 c-11 28 -30 80 -42 115 l-23 62 46 46 c25 24 51 60 57 79 6 19 14 35 16 35 2 0 36 -16 74 -35z m1867 -290 l247 -220 -252 -3 c-139 -1 -365 -1 -504 0 l-252 3 249 222 c138 123 253 222 257 220 4 -1 119 -101 255 -222z m-2096 -204 c66 -179 119 -328 119 -333 0 -4 -153 -8 -340 -8 l-340 0 0 -320 0 -320 589 -2 c578 -3 590 -3 617 -24 53 -39 69 -71 69 -134 0 -63 -16 -95 -69 -134 -27 -21 -36 -21 -726 -21 -690 0 -699 0 -726 21 -15 11 -37 33 -48 48 -20 27 -21 41 -24 499 -2 321 1 494 9 540 16 100 78 216 154 292 89 89 175 129 393 181 97 23 183 42 191 41 9 -1 58 -123 132 -326z m959 284 c142 -33 208 -54 261 -81 38 -20 68 -40 67 -44 -2 -4 -58 -56 -125 -115 l-123 -109 0 -858 0 -858 -160 0 -160 0 0 185 c0 102 4 185 9 185 20 0 96 89 120 140 36 75 36 193 2 260 -32 61 -74 113 -105 130 l-26 13 0 264 0 263 -100 0 c-55 0 -100 4 -100 8 0 5 50 145 111 312 137 374 127 350 134 350 3 0 91 -20 195 -45z m-502 -313 c-1 -5 -28 -77 -58 -160 -51 -141 -57 -152 -80 -152 -23 0 -29 11 -80 152 -30 83 -56 155 -58 160 -2 4 60 8 138 8 78 0 140 -4 138 -8z m3302 -72 l0 -80 -400 0 -400 0 0 80 0 80 400 0 400 0 0 -80z m-1280 -240 l0 -160 -160 0 -160 0 0 -160 0 -160 -80 0 -80 0 0 -720 0 -720 -400 0 -400 0 0 1040 0 1040 640 0 640 0 0 -160z m1280 -960 l0 -960 -160 0 -160 0 0 720 0 720 -80 0 -80 0 0 160 0 160 -160 0 -160 0 0 80 0 80 400 0 400 0 0 -960z m-3200 640 l0 -160 -480 0 -480 0 0 160 0 160 480 0 480 0 0 -160z m2560 -80 l0 -80 -400 0 -400 0 0 80 0 80 400 0 400 0 0 -80z m160 -880 l0 -640 -80 0 -80 0 0 240 0 240 -400 0 -400 0 0 -240 0 -240 -80 0 -80 0 0 640 0 640 560 0 560 0 0 -640z m-2720 0 l0 -160 -480 0 -480 0 0 160 0 160 480 0 480 0 0 -160z m2400 -480 l0 -160 -240 0 -240 0 0 160 0 160 240 0 240 0 0 -160z"></path><path d="M3600 3200 l0 -80 80 0 80 0 0 80 0 80 -80 0 -80 0 0 -80z"></path><path d="M3600 2880 l0 -80 80 0 80 0 0 80 0 80 -80 0 -80 0 0 -80z"></path><path d="M4240 3200 l0 -80 80 0 80 0 0 80 0 80 -80 0 -80 0 0 -80z"></path><path d="M4240 2880 l0 -80 80 0 80 0 0 80 0 80 -80 0 -80 0 0 -80z"></path><path d="M2480 2080 l0 -80 80 0 80 0 0 80 0 80 -80 0 -80 0 0 -80z"></path><path d="M2800 2080 l0 -80 80 0 80 0 0 80 0 80 -80 0 -80 0 0 -80z"></path><path d="M2480 1760 l0 -80 80 0 80 0 0 80 0 80 -80 0 -80 0 0 -80z"></path><path d="M2800 1760 l0 -80 80 0 80 0 0 80 0 80 -80 0 -80 0 0 -80z"></path><path d="M2480 1440 l0 -80 80 0 80 0 0 80 0 80 -80 0 -80 0 0 -80z"></path><path d="M2800 1440 l0 -80 80 0 80 0 0 80 0 80 -80 0 -80 0 0 -80z"></path><path d="M2480 1120 l0 -80 80 0 80 0 0 80 0 80 -80 0 -80 0 0 -80z"></path><path d="M2800 1120 l0 -80 80 0 80 0 0 80 0 80 -80 0 -80 0 0 -80z"></path><path d="M2480 800 l0 -80 80 0 80 0 0 80 0 80 -80 0 -80 0 0 -80z"></path><path d="M2800 800 l0 -80 80 0 80 0 0 80 0 80 -80 0 -80 0 0 -80z"></path><path d="M2480 480 l0 -80 80 0 80 0 0 80 0 80 -80 0 -80 0 0 -80z"></path><path d="M2800 480 l0 -80 80 0 80 0 0 80 0 80 -80 0 -80 0 0 -80z"></path><path d="M3440 1280 l0 -80 80 0 80 0 0 80 0 80 -80 0 -80 0 0 -80z"></path><path d="M3760 1280 l0 -80 80 0 80 0 0 80 0 80 -80 0 -80 0 0 -80z"></path><path d="M4080 1280 l0 -80 80 0 80 0 0 80 0 80 -80 0 -80 0 0 -80z"></path><path d="M3440 960 l0 -80 80 0 80 0 0 80 0 80 -80 0 -80 0 0 -80z"></path>
                        <path d="M3760 960 l0 -80 80 0 80 0 0 80 0 80 -80 0 -80 0 0 -80z"></path><path d="M4080 960 l0 -80 80 0 80 0 0 80 0 80 -80 0 -80 0 0 -80z"></path></g>
                    </svg>
                    